<svg xmlns="http://www.w3.org/2000/svg" width="304" height="320" class="svgbob"><style>.svgbob line, .svgbob path, .svgbob circle, .svgbob rect, .svgbob polygon {
    stroke: black;
    stroke-width: 2;
    stroke-opacity: 1;
    fill-opacity: 1;
    stroke-linecap: round;
    stroke-linejoin: miter;
}
.svgbob text {
    white-space: pre;
    fill: black;
    font-family: Iosevka Fixed, monospace;
    font-size: 14px;
}
.svgbob rect.backdrop {
    stroke: none;
    fill: none;
}
.svgbob .broken {
    stroke-dasharray: 8;
}
.svgbob .filled {
    fill: black;
}
.svgbob .bg_filled {
    fill: none;
    stroke-width: 1;
}
.svgbob .nofill {
    fill: none;
}
.svgbob .end_marked_arrow {
    marker-end: url(#arrow);
}
.svgbob .start_marked_arrow {
    marker-start: url(#arrow);
}
.svgbob .end_marked_diamond {
    marker-end: url(#diamond);
}
.svgbob .start_marked_diamond {
    marker-start: url(#diamond);
}
.svgbob .end_marked_circle {
    marker-end: url(#circle);
}
.svgbob .start_marked_circle {
    marker-start: url(#circle);
}
.svgbob .end_marked_open_circle {
    marker-end: url(#open_circle);
}
.svgbob .start_marked_open_circle {
    marker-start: url(#open_circle);
}
.svgbob .end_marked_big_open_circle {
    marker-end: url(#big_open_circle);
}
.svgbob .start_marked_big_open_circle {
    marker-start: url(#big_open_circle);
}<!--separator--></style><defs><marker id="arrow" viewBox="-2 -2 8 8" refX="4" refY="2" markerWidth="7" markerHeight="7" orient="auto-start-reverse"><polygon points="0,0 0,4 4,2 0,0"></polygon></marker><marker id="diamond" viewBox="-2 -2 8 8" refX="4" refY="2" markerWidth="7" markerHeight="7" orient="auto-start-reverse"><polygon points="0,2 2,0 4,2 2,4 0,2"></polygon></marker><marker id="circle" viewBox="0 0 8 8" refX="4" refY="4" markerWidth="7" markerHeight="7" orient="auto-start-reverse"><circle cx="4" cy="4" r="2" class="filled"></circle></marker><marker id="open_circle" viewBox="0 0 8 8" refX="4" refY="4" markerWidth="7" markerHeight="7" orient="auto-start-reverse"><circle cx="4" cy="4" r="2" class="bg_filled"></circle></marker><marker id="big_open_circle" viewBox="0 0 8 8" refX="4" refY="4" markerWidth="7" markerHeight="7" orient="auto-start-reverse"><circle cx="4" cy="4" r="3" class="bg_filled"></circle></marker></defs><rect class="backdrop" x="0" y="0" width="304" height="320"></rect><line x1="144" y1="8" x2="152" y2="8" class="solid"></line><text x="154" y="12" >`</text><text x="146" y="28" >o</text><line x1="152" y1="24" x2="160" y2="24" class="solid"></line><text x="162" y="28" >`</text><text x="130" y="44" >`ooo</text><line x1="168" y1="32" x2="156" y2="56" class="solid end_marked_open_circle"></line><text x="122" y="60" >`</text><line x1="128" y1="56" x2="136" y2="56" class="solid"></line><text x="138" y="60" >oo</text><text x="162" y="60" >o:</text><text x="114" y="76" >`</text><text x="130" y="76" >ooooo</text><line x1="172" y1="64" x2="172" y2="72" class="solid end_marked_open_circle"></line><text x="178" y="76" >:</text><line x1="112" y1="88" x2="132" y2="88" class="solid end_marked_open_circle"></line><line x1="132" y1="92" x2="132" y2="96" class="solid"></line><text x="138" y="92" >ooooo</text><text x="186" y="92" >:</text><text x="98" y="108" >`</text><line x1="112" y1="96" x2="72" y2="176" class="solid"></line><text x="90" y="124" >`</text><text x="82" y="140" >`</text><text x="74" y="156" >`</text><text x="82" y="172" >$2ooosssso</text><text x="114" y="108" >:</text><line x1="120" y1="104" x2="128" y2="104" class="solid"></line><text x="130" y="108" >:</text><text x="154" y="108" >oooo</text><text x="194" y="108" >:</text><text x="202" y="124" >:</text><text x="210" y="140" >:</text><text x="114" y="156" >o$2oooooooo$1oooo</text><line x1="256" y1="144" x2="248" y2="160" class="solid"></line><text x="258" y="156" >`</text><text x="66" y="172" >.</text><text x="178" y="172" >osssssso$1</text><text x="266" y="172" >`</text><text x="74" y="188" >.oosssss</text><line x1="152" y1="184" x2="140" y2="184" class="solid end_marked_open_circle"></line><text x="154" y="188" >````</text><line x1="192" y1="176" x2="184" y2="192" class="solid"></line><text x="194" y="188" >ossssss</text><line x1="252" y1="184" x2="256" y2="184" class="solid"></line><text x="258" y="188" >`</text><line x1="48" y1="200" x2="60" y2="200" class="solid end_marked_open_circle"></line><text x="66" y="204" >sssssso</text><text x="178" y="204" >:ssssssso</text><text x="42" y="220" >:osssssss</text><text x="186" y="220" >osssso</text><line x1="44" y1="224" x2="44" y2="232" class="solid end_marked_open_circle"></line><text x="50" y="236" >ssssssss</text><line x1="120" y1="224" x2="112" y2="240" class="solid"></line><text x="186" y="236" >+ssssooo</text><text x="18" y="252" >`</text><text x="34" y="252" >ossssso</text><line x1="88" y1="248" x2="92" y2="248" class="solid"></line><line x1="104" y1="240" x2="96" y2="256" class="solid"></line><text x="106" y="252" >:</text><line x1="112" y1="248" x2="120" y2="248" class="solid"></line><line x1="184" y1="248" x2="192" y2="248" class="solid"></line><text x="194" y="252" >:</text><line x1="208" y1="240" x2="200" y2="256" class="solid"></line><line x1="212" y1="248" x2="216" y2="248" class="solid"></line><text x="218" y="252" >osssso</text><line x1="264" y1="248" x2="280" y2="248" class="solid"></line><text x="10" y="268" >`</text><text x="26" y="268" >sso</text><line x1="48" y1="264" x2="52" y2="264" class="solid"></line><text x="58" y="268" >:</text><line x1="64" y1="264" x2="72" y2="264" class="solid"></line><text x="74" y="268" >`</text><text x="218" y="268" >`.</text><line x1="252" y1="264" x2="256" y2="264" class="solid"></line><text x="258" y="268" >oso:</text><text x="2" y="284" >`</text><text x="26" y="284" >:.</text><text x="258" y="284" >`</text><line x1="284" y1="272" x2="284" y2="288" class="solid"></line><line x1="296" y1="272" x2="288" y2="288" class="solid"></line><text x="2" y="300" >.`</text><text x="282" y="300" >`</text><line x1="296" y1="288" x2="288" y2="304" class="solid"></line><text x="2" y="188" >$2</text><g><path d="M 140,24 A 8,8 0,0,0 132,32" class="nofill"></path><line x1="140" y1="24" x2="144" y2="24" class="solid"></line></g><g><line x1="120" y1="72" x2="128" y2="72" class="solid"></line><line x1="124" y1="72" x2="124" y2="88" class="solid"></line></g><g><line x1="180" y1="80" x2="180" y2="88" class="solid"></line><line x1="176" y1="88" x2="180" y2="88" class="solid"></line></g><g><line x1="140" y1="104" x2="152" y2="104" class="solid"></line><line x1="148" y1="104" x2="132" y2="136" class="solid"></line><line x1="148" y1="104" x2="148" y2="136" class="solid"></line><line x1="148" y1="120" x2="196" y2="120" class="solid"></line><line x1="156" y1="120" x2="156" y2="136" class="solid"></line><line x1="164" y1="120" x2="164" y2="136" class="solid"></line><line x1="172" y1="120" x2="172" y2="136" class="solid"></line><line x1="180" y1="120" x2="180" y2="136" class="solid"></line><line x1="196" y1="112" x2="196" y2="136" class="solid"></line><line x1="108" y1="120" x2="132" y2="120" class="solid"></line><line x1="108" y1="120" x2="108" y2="152" class="solid"></line><line x1="124" y1="120" x2="124" y2="136" class="solid"></line><line x1="132" y1="112" x2="132" y2="136" class="solid"></line><line x1="188" y1="96" x2="188" y2="136" class="solid"></line><line x1="184" y1="104" x2="188" y2="104" class="solid"></line><line x1="116" y1="112" x2="116" y2="136" class="solid"></line><line x1="100" y1="136" x2="204" y2="136" class="solid"></line><line x1="100" y1="136" x2="100" y2="152" class="solid"></line><line x1="204" y1="128" x2="204" y2="136" class="solid"></line><line x1="92" y1="152" x2="112" y2="152" class="solid"></line></g><g><line x1="160" y1="168" x2="176" y2="168" class="solid"></line><line x1="164" y1="168" x2="164" y2="176" class="solid"></line><line x1="172" y1="168" x2="172" y2="176" class="solid"></line></g><g><line x1="260" y1="168" x2="264" y2="168" class="solid"></line><line x1="260" y1="168" x2="260" y2="176" class="solid"></line></g><g><path d="M 120,200 A 3,3 0,0,1 122,204" class="nofill"></path><line x1="122" y1="204" x2="112" y2="224" class="solid"></line></g><g><path d="M 248,200 A 4,4 0,0,1 252,204" class="nofill"></path><line x1="252" y1="204" x2="252" y2="216" class="solid"></line><line x1="232" y1="216" x2="256" y2="216" class="solid"></line><path d="M 256,216 A 3,3 0,0,1 258,220" class="nofill"></path><line x1="258" y1="220" x2="248" y2="240" class="solid"></line><line x1="252" y1="232" x2="264" y2="232" class="solid"></line></g><g><line x1="40" y1="224" x2="20" y2="264" class="solid"></line><line x1="16" y1="264" x2="20" y2="264" class="solid"></line><line x1="20" y1="264" x2="20" y2="280" class="solid"></line><line x1="8" y1="280" x2="20" y2="280" class="solid"></line><line x1="12" y1="280" x2="12" y2="288" class="solid"></line></g><g><line x1="232" y1="264" x2="244" y2="264" class="solid"></line><line x1="248" y1="256" x2="240" y2="272" class="solid"></line></g><g><line x1="264" y1="280" x2="276" y2="280" class="solid"></line><line x1="280" y1="272" x2="272" y2="288" class="solid"></line></g></svg>
